<?xml version="1.0" encoding="utf-8"?>
<!-- Generator: Adobe Illustrator 22.0.0, SVG Export Plug-In . SVG Version: 6.00 Build 0)  -->
<svg version="1.1" id="Layer_1" xmlns="http://www.w3.org/2000/svg" xmlns:xlink="http://www.w3.org/1999/xlink" x="0px" y="0px"
	 viewBox="0 0 2551.2 496.1" style="enable-background:new 0 0 2551.2 496.1;" xml:space="preserve">
<style type="text/css">
	.st0{fill:#FFFFFF;stroke:#000000;stroke-width:6;stroke-miterlimit:10;}
</style>
<title>CompanyLogo</title>
<path class="st0" d="M298.7,43.9L298.7,43.9c0.6,24.4,1.1,48.4,1.7,72.3C299.8,92.3,299.3,68.2,298.7,43.9z M132,156.3
	c3.2-24.8,6.3-49.7,9.4-74.7C138.3,106.6,135.2,131.5,132,156.3z M338.1,208.4c-17.9,2.2-35.2-11.3-35.9-29.7
	c-0.1-1.5-0.1-3.1-0.2-4.6c0.1,1.5,0.1,3.1,0.2,4.6C302.9,197.1,320.2,210.6,338.1,208.4c15.7-1.9,26.9-14.3,28.1-29.6
	C365,194.1,353.8,206.5,338.1,208.4z M146.1,43.7c-0.5,4.2-1.1,8.4-1.6,12.6C145,52.1,145.6,47.9,146.1,43.7z M362.6,144.7
	c0.8,6.4,1.6,12.7,2.4,19.1C364.2,157.5,363.4,151.1,362.6,144.7z M159.2,208.5c-11-0.9-20.7-7.5-25.6-17.4
	C138.5,201,148.2,207.6,159.2,208.5c2.9,0.2,5.8,0.1,8.7-0.4C165,208.6,162.1,208.7,159.2,208.5z M462.3,452.8
	c-7.5-0.1-14.9,0-23.8,0v-10.6c0-68.5,0.1-137-0.1-205.5c0-6.7,1.5-10.3,7.9-13.7c22.3-11.7,31.5-34.3,25.3-59
	c-10.9-43.2-21.8-86.3-32.3-129.6c-2.2-9.2-6.7-12.7-16.2-12.7c-116.7,0.2-233.4,0.2-350.1,0c-9.5,0-13.9,3.6-16.1,12.8
	c-11,45.6-22.6,91-33.9,136.5c-0.9,3.5-1.2,7.1-0.9,10.6c2,20.7,15.8,38.5,35.4,45.5c-0.2,16.1,0.2,39.9,0.2,41.9
	c0,58,0,116.1,0,174.1v9.7H46.5c-3.6,0-7.2,0.1-10.8,0c-7.5-0.2-13.1,2.2-13.7,10.6c-0.5,6.8,4.6,10.7,13.3,10.9c1.5,0,3,0,4.5,0
	h416.5c2.1,0,4.2,0,6.3,0c7.1-0.2,11.6-3.7,11.5-10.9C474,456.2,469.3,452.9,462.3,452.8z M350.1,43.9L350.1,43.9l11.1,89
	c0.5,3.9,1,7.9,1.5,11.8c0.8,6.4,1.6,12.7,2.4,19.1c0.3,2.4,0.6,4.9,1,7.3c0.3,1.9,0.4,3.8,0.3,5.8l0,0c0,0.6,0,1.3-0.1,1.9
	c-1.2,15.3-12.4,27.7-28.1,29.6c-17.9,2.2-35.2-11.3-35.9-29.7c-0.1-1.5-0.1-3.1-0.2-4.6c-0.7-19.2-1.3-38.5-1.7-57.8
	c-0.6-23.9-1.1-48-1.7-72.3L350.1,43.9z M194.2,443v9.3H79.3v-10.1c0-57.8,0-115.5,0-173.2c0-1.9,0.4-23.3,0.3-39.3
	c2.5-0.3,4.9-0.7,7.3-1.3c11.6-3.1,22-10.7,34-16.7c10.4,11.9,25.5,18.7,41.3,18.5c12.3,0,22.8-4.1,32.1-10.9
	C194.2,278.6,194.2,386.8,194.2,443z M194.2,176c-0.5,16.7-11.5,29.4-26.3,32.1c-2.9,0.5-5.8,0.6-8.7,0.4
	c-11-0.9-20.7-7.5-25.6-17.4c-3.2-6.4-4.4-13.5-3.4-20.6c0.6-4.7,1.2-9.5,1.8-14.2c3.2-24.8,6.3-49.7,9.4-74.7
	c1.1-8.4,2.1-16.8,3.1-25.3c0.5-4.2,1.1-8.4,1.6-12.6H197c0.1,2.7,0.4,5.3,0.4,7.8C196.3,93,195.3,134.5,194.2,176L194.2,176z
	 M416.2,409.3H215.7v-10.1c0-41.6,0-134.1,0-179.8c9.2,7.1,20.6,10.9,32.2,10.8c17.5,0.1,31.4-7.9,42.9-20.5
	c24.9,25.8,58.2,28.8,87-0.2c9.8,12.4,23.2,18.9,38.2,20.7L416.2,409.3z M340.4,268.7c-5.1-5.6-13.2-2.6-17,5.8
	c-8.4,18.4-16.6,37-24.8,55.6c-5.7,12.8-11.5,25.6-16.9,38.5c-3.5,8.4,1.3,16.2,11.7,16c1.6-1.5,5.7-3.6,7.2-6.8
	c14.6-32,29-64.2,42.7-96.6C344.6,277.9,343,271.5,340.4,268.7z M363,290.7c-6.8,15-13.5,30-20,45c-3.4,7.9-1.5,13.9,4.8,16.8
	c6.1,2.8,11.2,0.1,15.1-8.4c6.4-14.1,12.6-28.4,18.9-42.6c1-2.2-0.1,0.4,1.5-3.8c2.7-6.1-0.2-10.2-5.7-12.6
	C372,282.6,365.5,285.1,363,290.7L363,290.7z M158.3,359.2c0.7,6.5,4.1,10.8,10.8,10.8c6.2,0.1,10.2-3.7,10.6-9.9
	c0.4-6.6-3.5-10.9-10.1-11.3S159.3,352.7,158.3,359.2z"/>
<g>
	<path class="st0" d="M787.5,215.2l-29.2,137.3c-0.9,3.4-3.2,5.1-7,5.1c-5.3,0-10.1-3.1-14.5-9.4c-4.4-6.3-6.1-12.3-5.1-18.1
		l45-212.4c3.6-16.9-1.4-25.4-14.9-25.4c-6.5,0-14.4,2.8-23.7,8.4c-9.3,5.6-18.7,13.4-28.3,23.4c-9.6,10-18.7,23-27.2,39.2
		c-8.5,16.2-14.8,33.5-18.8,52l-29.2,137.7c-0.9,3.1-3.1,4.7-6.6,4.7c-5.3,0-10.2-3.1-14.7-9.4c-4.6-6.3-6.3-12.3-5.3-18.1
		l53.8-252.5c0.9-3.6,3.1-5.3,6.6-5.3c5.3,0,10.2,3.1,14.7,9.4c4.6,6.3,6.3,12.3,5.3,18.1l-10.7,48.7c12-22.2,26.9-40.5,44.8-54.8
		c17.9-14.3,35.1-21.5,51.4-21.5c13.2,0,22.9,4.7,28.9,14.2c6,9.5,7.6,20.9,4.8,34.3l-5.1,24.5c11.8-22.1,26.4-39.7,43.7-53
		c17.3-13.3,33.8-20,49.4-20c13.4,0,23.3,4.7,29.8,14.2c6.5,9.5,8.4,20.7,5.7,33.8l-49.5,232.3c-0.9,3.4-3.1,5.1-6.6,5.1
		c-5.3,0-10.1-3.1-14.5-9.4c-4.4-6.3-6.1-12.3-5.1-18.1l45-212.4c1.6-7.4,1-13.5-1.8-18.3c-2.8-4.8-7.9-7.2-15.3-7.2
		c-6.5,0-14.3,2.8-23.3,8.4c-9,5.6-18.1,13.4-27.5,23.4c-9.4,10-18.2,23-26.5,39.2C797.6,179.4,791.5,196.7,787.5,215.2z"/>
	<path class="st0" d="M1044.1,320.2c-7.8,12.1-16.7,21.4-26.6,28c-9.9,6.5-20.2,9.8-30.8,9.8c-10.4,0-19.6-2.5-27.6-7.4
		c-8-4.9-14.1-11.4-18.3-19.5c-4.1-8.1-6.9-17.4-8.4-28c-1.5-10.5-0.9-21.3,1.8-32.4c5.1-24.6,16.1-45.4,32.9-62.2
		c16.8-16.9,35.7-25.3,56.8-25.3c10.4,0,19.2,3.1,26.6,9.3c7.3,6.2,12.4,15.1,15.3,26.8l6.2-31.2c0.9-3.3,3.2-4.9,7-4.9
		c5.3,0,10.2,3.1,14.7,9.3c4.6,6.2,6.3,12.3,5.3,18.3l-30.5,141.7c-0.9,3.7-3.1,5.6-6.6,5.6c-5.4,0-10.4-3.2-14.9-9.7
		c-4.6-6.5-6.3-12.6-5.1-18.3L1044.1,320.2z M1025.6,197.3c-12.2,0-24.2,7.2-36,21.5c-11.7,14.3-19.8,31.6-24.2,52
		c-2.7,13.8-3.3,26.1-1.8,36.9c1.5,10.8,5,19.5,10.6,26.2c5.6,6.6,12.4,9.9,20.5,9.9c12.5,0,24.6-7.1,36.3-21.2
		c11.7-14.2,19.7-31.4,24.1-51.8c2.7-13.8,3.3-26.2,1.7-37c-1.6-10.9-5.1-19.7-10.7-26.4C1040.5,200.6,1033.7,197.3,1025.6,197.3z"
		/>
	<path class="st0" d="M1154.5,320l-7,32.4c-0.9,3.4-3.1,5.1-6.6,5.1c-5.3,0-10.1-3.1-14.5-9.4c-4.4-6.3-6.1-12.3-5.1-18.1
		l30.3-141.5c0.9-3.6,2.8-5.3,6-5.3c5.3,0,10.2,3.1,14.7,9.4c4.6,6.3,6.3,12.3,5.3,18.1l-7.9,38.4c10.8-21.9,23.1-38.4,36.8-49.4
		c13.7-11,27.4-16.5,41.1-16.5c2,0,3.7,0.7,5.1,2.2c1.4,1.5,1.9,3.2,1.5,5.2c-0.4,2.1-1.5,4-3.3,5.6c-1.8,1.6-3.9,2.3-6.3,2.3
		c-16.5,0-33.8,11.8-52,35.3C1174.5,257.4,1161.8,286.2,1154.5,320z"/>
	<path class="st0" d="M1389.1,183.2c13.1,0,23.3,3.5,30.6,10.6c7.3,7,9.8,16.3,7.4,27.9c-4.8,22.6-29.7,40.4-74.7,53.4l45.5,70
		c2.3,3.3,2.1,6.2-0.4,8.8c-3.7,3.7-9.3,4.9-16.9,3.6c-7.5-1.3-13.1-4.4-16.7-9.4l-42.7-65.5c-8.1,1.6-17.6,3.1-28.6,4.5l-14.1,65.5
		c-0.9,3.7-3.1,5.6-6.6,5.6c-5.3,0-10.2-3.2-14.7-9.6c-4.6-6.4-6.3-12.5-5.3-18.4l53.8-252.5c0.9-3.6,3.2-5.3,7-5.3
		c5.3,0,10.1,3.1,14.5,9.4c4.4,6.3,6.1,12.3,5.1,18.1l-26.7,125.5c10.5-13.1,23.5-23.4,38.9-30.8
		C1359.9,186.9,1374.7,183.2,1389.1,183.2z M1294.7,277.1c4-0.7,8.3-1.6,13-2.6c4.7-1,11-2.5,18.8-4.5c7.8-2,15.3-4.5,22.3-7.5
		c7-3,14-6.4,20.8-10.1c6.8-3.8,12.6-8.3,17.2-13.7c4.6-5.3,7.6-11.1,8.9-17.2c1.4-7,0.3-12.6-3.3-16.8c-3.6-4.2-9.1-6.3-16.3-6.3
		c-10.1,0-20.7,2.7-31.7,8.2c-11,5.5-20.9,13.1-29.6,22.8c-8.7,9.7-14.2,20.2-16.7,31.5L1294.7,277.1z"/>
	<path class="st0" d="M1543,183.2c6.5,0,12.5,0.6,17.9,1.8c5.4,1.2,9.9,2.9,13.4,5c3.6,2.1,6.7,4.6,9.3,7.5c2.6,2.8,4.5,5.9,5.6,9.2
		c1.1,3.3,1.8,6.7,2.1,10.1c0.4,3.5,0.1,6.9-0.7,10.1c-2.1,9.8-7.5,18.8-16.1,26.9c-8.6,8.1-18.8,14.7-30.6,19.7
		c-11.8,5.1-24.2,9-37,12c-12.9,2.9-25.4,4.5-37.5,4.8c0.6,14.4,5.1,26.1,13.6,35.2c8.5,9.1,19.3,13.7,32.6,13.7
		c22.9,0,41.1-12.8,54.6-38.4c2.3-3.8,5.5-5.6,9.6-5.1c2.1,0.3,3.7,1.2,4.6,2.7c0.9,1.5,1.1,3.5,0.5,5.9
		c-5.7,15.4-15.7,28.1-30.1,38.2c-14.4,10.1-31.2,15.2-50.4,15.2c-22.5,0-40.1-8.4-52.8-25.3c-12.7-16.9-16.5-37.4-11.4-61.6
		c3.8-17.5,11.1-33,21.8-46.5c10.7-13.5,23.1-23.7,37.3-30.6C1513.3,186.6,1527.9,183.2,1543,183.2z M1469.6,281.8
		c21.9-1,41.4-6.2,58.5-15.6c17.1-9.4,27.4-22.5,31-39.3c1.6-7.7,0.6-14.5-2.9-20.6c-3.5-6-9.4-9.1-17.6-9.1
		c-12.2,0-25.3,6.9-39.3,20.6c-13.9,13.7-23.3,31.3-28,52.8C1470.3,275,1469.7,278.7,1469.6,281.8z"/>
	<path class="st0" d="M1624.6,196.4c-1.3,0-2.3-0.5-3.2-1.5c-0.9-1-1.1-2.1-0.9-3.4c0.1-1.3,0.9-2.5,2.2-3.5
		c1.3-1.1,2.7-1.6,3.9-1.6h17.9l11.7-55.3c0.9-3.4,3.1-5.1,6.6-5.1c5.3,0,10.2,3.1,14.7,9.4c4.6,6.3,6.3,12.3,5.3,18.1l-7,32.9h58.7
		c1.3,0,2.2,0.5,2.9,1.6c0.6,1.1,0.8,2.2,0.5,3.5c-0.1,1.3-0.8,2.4-2,3.4c-1.2,1-2.5,1.5-3.7,1.5h-58.5l-25.4,118.5
		c-1.6,7.7-0.9,13.9,2,18.6c2.9,4.7,8.2,7,15.9,7c10,0,20.1-4.2,30.3-12.6c2.1-1.7,4.1-2.6,6-2.6c1.7,0,3.1,0.6,4.1,1.7
		c1,1.1,1.3,2.6,0.9,4.3c-0.3,2-2.3,4.6-6.2,7.9c-14.1,12.2-30.2,18.4-48.5,18.4c-14.8,0-25.1-4.1-31-12.2c-5.8-8.1-7.3-18.8-4.5-32
		l25-117H1624.6z"/>
	<path class="st0" d="M1847.8,182.8c10.4,0,19.6,2.5,27.6,7.4c8,4.9,14.2,11.5,18.4,19.6c4.2,8.2,7,17.5,8.5,28.1
		c1.5,10.5,0.9,21.3-1.8,32.4c-5.1,24.5-16.2,45.1-33.1,62c-16.9,16.9-35.9,25.3-57,25.3c-10.4,0-19.2-3.1-26.5-9.3
		s-12.2-15.2-14.9-27L1739,463.5c-0.9,3.6-3.1,5.3-6.6,5.3c-5.3,0-10.2-3.1-14.7-9.3c-4.6-6.2-6.3-12.3-5.3-18.3l53.8-252.7
		c1-3.8,3.1-5.8,6.4-5.8c5.4,0,10.4,3.2,14.9,9.7c4.6,6.5,6.3,12.6,5.1,18.3l-1.9,9.6c7.8-12.1,16.7-21.4,26.6-27.9
		C1827.1,186,1837.3,182.8,1847.8,182.8z M1840,197.3c-12.2,0-24.2,7.1-35.9,21.3c-11.7,14.2-19.7,31.5-24.1,51.7
		c-2.7,13.8-3.4,26.2-2,37c1.3,10.9,4.8,19.7,10.4,26.4c5.6,6.7,12.4,10,20.5,10c12.4,0,24.4-7.2,36.2-21.5s19.8-31.6,24.2-52
		c2.7-13.8,3.3-26.1,1.8-36.9c-1.5-10.8-5-19.5-10.6-26.2C1854.9,200.6,1848.1,197.3,1840,197.3z"/>
	<path class="st0" d="M1923.2,330.1L1977,77.5c0.9-3.6,3.2-5.3,7-5.3c5.3,0,10.1,3.1,14.5,9.4c4.4,6.3,6.1,12.3,5.1,18.1
		l-53.8,252.7c-0.9,3.4-3.1,5.1-6.6,5.1c-5.3,0-10.2-3.1-14.7-9.4C1924,341.9,1922.2,335.9,1923.2,330.1z"/>
	<path class="st0" d="M2111.7,320.2c-7.8,12.1-16.7,21.4-26.6,28c-9.9,6.5-20.2,9.8-30.8,9.8c-10.4,0-19.6-2.5-27.6-7.4
		c-8-4.9-14.1-11.4-18.3-19.5c-4.1-8.1-6.9-17.4-8.4-28c-1.5-10.5-0.9-21.3,1.8-32.4c5.1-24.6,16.1-45.4,32.9-62.2
		c16.8-16.9,35.7-25.3,56.8-25.3c10.4,0,19.2,3.1,26.6,9.3c7.3,6.2,12.4,15.1,15.3,26.8l6.2-31.2c0.9-3.3,3.2-4.9,7-4.9
		c5.3,0,10.2,3.1,14.7,9.3c4.6,6.2,6.3,12.3,5.3,18.3L2136,352.5c-0.9,3.7-3.1,5.6-6.6,5.6c-5.4,0-10.4-3.2-14.9-9.7
		c-4.6-6.5-6.3-12.6-5.1-18.3L2111.7,320.2z M2093.1,197.3c-12.2,0-24.2,7.2-36,21.5c-11.7,14.3-19.8,31.6-24.2,52
		c-2.7,13.8-3.3,26.1-1.8,36.9c1.5,10.8,5,19.5,10.6,26.2c5.6,6.6,12.4,9.9,20.5,9.9c12.5,0,24.6-7.1,36.3-21.2
		c11.7-14.2,19.7-31.4,24.1-51.8c2.7-13.8,3.3-26.2,1.7-37c-1.6-10.9-5.1-19.7-10.7-26.4C2108.1,200.6,2101.2,197.3,2093.1,197.3z"
		/>
	<path class="st0" d="M2292.1,183.2c18.4,0,31.6,3.4,39.8,10.1c8.2,6.8,11.2,15.3,9.1,25.7c-4.8,23.1-26,34.6-63.4,34.6
		c-1.1,0-2.2-0.5-3.1-1.5c-0.9-1-1.3-2.1-1.2-3.4c0.4-2.3,2-3.8,4.7-4.7c18.1-1.8,28.6-9.7,31.6-23.7c1.3-6.8,0-12.4-3.7-16.7
		c-3.8-4.3-9.9-6.4-18.3-6.4c-12.2,0-25.3,6.9-39.3,20.6c-13.9,13.7-23.3,31.3-28,52.8c-4.1,19.6-1.7,36,7.3,49s21.3,19.5,36.9,19.5
		c11.7,0,22.2-3.5,31.7-10.5c9.5-7,17.1-16,22.9-27.1c2.4-4.4,5.6-6.4,9.6-6c2.6,0.1,4.2,1.1,5,3c0.8,1.9,0.8,3.9,0.1,6.2
		c-5.8,15.1-15.9,27.6-30.2,37.7c-14.3,10-31.1,15-50.3,15c-22.5,0-40.1-8.4-52.8-25.3c-12.7-16.9-16.5-37.4-11.4-61.6
		c3.8-17.5,11.1-33,21.8-46.5c10.7-13.5,23.1-23.7,37.3-30.6C2262.4,186.6,2277,183.2,2292.1,183.2z"/>
	<path class="st0" d="M2456.9,183.2c6.5,0,12.5,0.6,17.9,1.8c5.4,1.2,9.9,2.9,13.4,5c3.6,2.1,6.7,4.6,9.3,7.5
		c2.6,2.8,4.5,5.9,5.6,9.2c1.1,3.3,1.8,6.7,2.1,10.1c0.4,3.5,0.1,6.9-0.7,10.1c-2.1,9.8-7.5,18.8-16.1,26.9
		c-8.6,8.1-18.8,14.7-30.6,19.7c-11.8,5.1-24.2,9-37,12c-12.9,2.9-25.4,4.5-37.5,4.8c0.6,14.4,5.1,26.1,13.6,35.2
		c8.5,9.1,19.3,13.7,32.6,13.7c22.9,0,41.1-12.8,54.6-38.4c2.3-3.8,5.5-5.6,9.6-5.1c2.1,0.3,3.7,1.2,4.6,2.7
		c0.9,1.5,1.1,3.5,0.5,5.9c-5.7,15.4-15.7,28.1-30.1,38.2c-14.4,10.1-31.2,15.2-50.4,15.2c-22.5,0-40.1-8.4-52.8-25.3
		c-12.7-16.9-16.5-37.4-11.4-61.6c3.8-17.5,11.1-33,21.8-46.5c10.7-13.5,23.1-23.7,37.3-30.6
		C2427.2,186.6,2441.8,183.2,2456.9,183.2z M2383.4,281.8c21.9-1,41.4-6.2,58.5-15.6c17.1-9.4,27.4-22.5,31-39.3
		c1.6-7.7,0.6-14.5-2.9-20.6c-3.5-6-9.4-9.1-17.6-9.1c-12.2,0-25.3,6.9-39.3,20.6c-13.9,13.7-23.3,31.3-28,52.8
		C2384.2,275,2383.6,278.7,2383.4,281.8z"/>
</g>
</svg>
